<?xml version="1.0" encoding="UTF-8" standalone="no"?>
<!-- Created with Inkscape (http://www.inkscape.org/) -->

<svg
   width="256"
   height="256"
   viewBox="0 0 256 256"
   id="svg2"
   version="1.1"
   inkscape:version="1.1 (1:1.1+202105261517+ce6663b3b7)"
   sodipodi:docname="lliurex-wifi-control.svg"
   xmlns:inkscape="http://www.inkscape.org/namespaces/inkscape"
   xmlns:sodipodi="http://sodipodi.sourceforge.net/DTD/sodipodi-0.dtd"
   xmlns="http://www.w3.org/2000/svg"
   xmlns:svg="http://www.w3.org/2000/svg"
   xmlns:rdf="http://www.w3.org/1999/02/22-rdf-syntax-ns#"
   xmlns:cc="http://creativecommons.org/ns#"
   xmlns:dc="http://purl.org/dc/elements/1.1/">
  <defs
     id="defs4">
    <linearGradient
       id="rect3438-6-0-6-7-2_60_-61"
       gradientUnits="userSpaceOnUse"
       x1="-461.39209"
       y1="370.95309"
       x2="-461.39209"
       y2="666.9834"
       gradientTransform="matrix(0.9954,0,0,-0.9999,609.2166,666.5718)">
      <stop
         offset="0"
         style="stop-color:#000000"
         id="stop29032" />
      <stop
         offset="1"
         style="stop-color:#000000;stop-opacity:0.5882"
         id="stop29034" />
    </linearGradient>
    <linearGradient
       id="rect3438-6-0-1-1_60_-60"
       gradientUnits="userSpaceOnUse"
       x1="-456.38821"
       y1="371.95309"
       x2="-456.38821"
       y2="668.63483"
       gradientTransform="matrix(0.9867,0,0,-0.9918,600.2651,662.6824)">
      <stop
         offset="0"
         style="stop-color:#000000"
         id="stop29038" />
      <stop
         offset="1"
         style="stop-color:#000000;stop-opacity:0.5882"
         id="stop29040" />
    </linearGradient>
  </defs>
  <sodipodi:namedview
     id="base"
     pagecolor="#ffffff"
     bordercolor="#666666"
     borderopacity="1.0"
     inkscape:pageopacity="0.0"
     inkscape:pageshadow="2"
     inkscape:zoom="0.9899495"
     inkscape:cx="54.548237"
     inkscape:cy="70.710678"
     inkscape:document-units="px"
     inkscape:current-layer="g962"
     showgrid="false"
     units="px"
     showguides="true"
     inkscape:guide-bbox="true"
     inkscape:snap-intersection-paths="false"
     inkscape:snap-midpoints="true"
     inkscape:window-width="1920"
     inkscape:window-height="879"
     inkscape:window-x="0"
     inkscape:window-y="0"
     inkscape:window-maximized="1"
     inkscape:pagecheckerboard="0">
    <sodipodi:guide
       position="128.92857,237.85714"
       orientation="0,1"
       id="guide4147"
       inkscape:locked="false" />
    <sodipodi:guide
       position="18.214286,162.14286"
       orientation="1,0"
       id="guide4149"
       inkscape:locked="false" />
    <sodipodi:guide
       position="237.85714,66.785714"
       orientation="1,0"
       id="guide4151"
       inkscape:locked="false" />
    <sodipodi:guide
       position="198.21429,17.5"
       orientation="0,1"
       id="guide4153"
       inkscape:locked="false" />
  </sodipodi:namedview>
  <metadata
     id="metadata7">
    <rdf:RDF>
      <cc:Work
         rdf:about="">
        <dc:format>image/svg+xml</dc:format>
        <dc:type
           rdf:resource="http://purl.org/dc/dcmitype/StillImage" />
      </cc:Work>
    </rdf:RDF>
  </metadata>
  <g
     inkscape:label="Capa 1"
     inkscape:groupmode="layer"
     id="layer1"
     transform="translate(0,-796.36216)">
    <g
       id="g29119"
       transform="matrix(0.74931131,0,0,0.74931131,16.298157,815.16006)">
      <g
         id="g962"
         transform="matrix(1.523394,0,0,1.523394,-80.067711,-67.2529)">
        <path
           d="m 147.10818,227.22508 c -5.52157,-0.69739 -10.66824,-3.30575 -14.65958,-7.42908 -4.38486,-4.52959 -6.72762,-9.89317 -7.0514,-16.13858 -0.61914,-12.03745 7.41915,-22.63304 19.40345,-25.57023 1.601,-0.39249 2.45178,-0.46886 5.31636,-0.47932 4.58832,-0.003 7.65312,0.64213 11.11661,2.38638 8.49879,4.28001 13.63103,12.15643 13.99457,21.47687 0.36639,9.28171 -4.19974,17.6375 -12.29746,22.52693 -4.51636,2.7271 -10.35373,3.91707 -15.82255,3.22628 z M 121.22735,171.2644 c -1.10392,-0.54769 -10.81825,-10.26218 -11.34486,-11.34462 -0.35151,-0.71745 -0.39584,-1.14762 -0.33412,-3.31056 0.008,-2.05135 0.1414,-2.62796 0.48848,-3.30013 0.49062,-0.94512 4.33745,-4.71494 7.08402,-6.94285 6.03975,-4.89904 13.97724,-8.75749 21.55729,-10.47823 4.18359,-0.94954 6.66807,-1.2046 11.73767,-1.2046 5.06913,0 7.5534,0.25532 11.73667,1.2046 7.579,1.72055 15.51204,5.57622 21.55848,10.47823 3.10262,2.51473 6.74261,6.14112 7.12586,7.09826 0.42183,1.06371 0.61062,5.14067 0.28132,6.16455 -0.31764,0.98594 -10.30957,11.06197 -11.54744,11.64349 -1.12061,0.52672 -3.0615,0.53978 -4.18875,0.0288 -0.47823,-0.21813 -1.34375,-0.96724 -2.10675,-1.82764 -1.77146,-1.997 -4.54276,-4.26638 -7.06296,-5.78335 -11.21728,-6.75184 -25.43389,-5.63319 -35.53418,2.79656 -1.00727,0.84068 -2.41344,2.18459 -3.12444,2.98679 -0.76383,0.8604 -1.62709,1.60979 -2.10698,1.82764 -1.12001,0.50871 -3.16041,0.4913 -4.22377,-0.0361 z M 92.03624,142.21528 c -1.051643,-0.53305 -11.368054,-10.95053 -11.629533,-11.74301 -0.121268,-0.36394 -0.195911,-1.6942 -0.1496,-3.04343 0.0068,-1.95222 0.145274,-2.54573 0.482745,-3.20168 0.809194,-1.55702 8.191593,-8.40495 13.016015,-12.0737 7.695403,-5.85249 18.102333,-11.27586 27.417013,-14.286837 20.95448,-6.774439 43.8069,-6.051098 64.05123,2.02753 7.51288,2.998007 15.74834,7.618007 21.85108,12.259307 4.82382,3.66875 12.20623,10.51668 13.01578,12.0737 0.34118,0.65632 0.42922,1.24946 0.48299,3.20168 0.005,1.35243 -0.004,2.6791 -0.14929,3.04507 -0.28181,0.85649 -10.80793,11.41495 -11.78756,11.82415 -0.91194,0.38064 -2.84458,0.36839 -3.82763,-0.0207 -0.52944,-0.211 -1.45245,-1.03025 -2.8185,-2.49661 -7.18517,-7.71308 -17.60449,-14.31431 -28.35638,-17.96598 -7.81962,-2.65553 -14.71949,-3.77819 -23.22078,-3.77819 -8.50208,0 -15.40166,1.12266 -23.22073,3.77819 -10.75275,3.65167 -21.17226,10.2529 -28.357118,17.96598 -1.3662,1.46636 -2.29126,2.2858 -2.81888,2.49661 -1.05939,0.42346 -3.094923,0.39406 -3.986677,-0.056 z M 62.643108,112.70147 c -1.164861,-0.52979 -11.001774,-10.49154 -11.311473,-11.45445 -0.139719,-0.42788 -0.200917,-1.672027 -0.164021,-3.109877 0.0068,-1.950585 0.147739,-2.545747 0.482698,-3.198948 C 52.26548,93.751597 58.61689,87.643597 63.344828,83.685991 82.797066,67.407574 106.1016,56.977465 130.95705,53.426315 c 7.61269,-1.087551 9.69759,-1.218125 19.46014,-1.218125 9.76315,0 11.84904,0.130764 19.46145,1.218125 24.85492,3.55115 48.16001,13.981259 67.61205,30.259676 4.7291,3.957606 11.07749,10.065606 11.69464,11.252204 0.33914,0.65323 0.42822,1.248363 0.48543,3.198948 0.005,1.43785 -0.004,2.681807 -0.16672,3.109877 -0.33274,1.02688 -10.1635,10.93655 -11.37857,11.46798 -1.16539,0.50923 -3.06403,0.49876 -4.21445,-0.0219 -0.55817,-0.25253 -2.04121,-1.53912 -4.11323,-3.56517 -8.80998,-8.61419 -17.4934,-14.857871 -28.22063,-20.292184 -13.27091,-6.723047 -26.4153,-10.429478 -42.13153,-11.88102 -5.86832,-0.541251 -16.40416,-0.292327 -23.17269,0.548736 -12.92918,1.607504 -25.29118,5.39169 -37.015968,11.331634 -10.727195,5.434215 -19.410029,11.677864 -28.220183,20.292214 -2.072388,2.02595 -3.556874,3.31265 -4.112999,3.56505 -1.130954,0.51327 -3.16601,0.51853 -4.282096,0.002 z"
           id="path26127"
           style="fill:#000000;stroke:none;stroke-width:6.20395"
           inkscape:connector-curvature="0" />
      </g>
      <g
         display="none"
         id="Capa_2-68"
         style="display:none" />
      <g
         display="none"
         id="Capa_3-77"
         style="display:none">
        <g
           display="inline"
           id="XMLID_528_-4"
           style="display:inline">
          <g
             id="XMLID_2864_-7">
            <path
               d="m -295.115,-19.288 c -15.214,6.737 -24.612,20.724 -30.829,35.639 -7.169,17.198 -11.31,35.881 -14.992,54.089 -7.519,37.173 -10.816,76.312 -2.523,113.65 7.941,35.758 27.651,67.435 57.682,88.698 29.222,20.689 65.052,30.788 100.487,33.167 37.115,2.492 76.078,-2.932 109.798,-19.132 33.565,-16.126 59.096,-43.918 70.596,-79.501 C 6.393,172.391 4.377,133.61 -8.874,99.523 -22.748,63.838 -47.557,33.298 -77.052,9.249 c -30.861,-25.164 -68.276,-46.583 -108.311,-51.688 -35.328,-4.505 -73.881,6.342 -96.752,34.95 -4.933,6.171 -8.813,12.974 -11.736,20.307 -0.715,1.793 2.185,2.572 2.893,0.797 13.176,-33.054 48.615,-52.32 83.037,-54.003 40.84,-1.997 80.003,16.718 112.695,39.626 59.351,41.588 104.572,109.559 92.812,184.644 -5.651,36.081 -24.609,68.498 -55.021,89.135 -30.553,20.733 -68.273,29.354 -104.783,30.385 -34.452,0.973 -69.825,-5.114 -100.831,-20.56 -31.954,-15.919 -57.236,-42.09 -70.265,-75.515 -13.134,-33.693 -13.966,-70.921 -9.603,-106.422 2.289,-18.628 6.083,-37.059 10.783,-55.221 4.199,-16.219 9.007,-33.091 19.169,-46.709 5.087,-6.816 11.572,-12.224 19.363,-15.673 1.763,-0.78 0.239,-3.365 -1.513,-2.59 l 0,0 z"
               id="XMLID_2805_-1"
               inkscape:connector-curvature="0"
               style="fill:#d60523" />
          </g>
        </g>
      </g>
    </g>
  </g>
</svg>
